<mxfile host="65bd71144e">
    <diagram id="TepHZdZFx7sjP4kLT6zO" name="Page-1">
        <mxGraphModel dx="1129" dy="802" grid="1" gridSize="10" guides="1" tooltips="1" connect="1" arrows="1" fold="1" page="1" pageScale="1" pageWidth="850" pageHeight="1100" background="#ffffff" math="0" shadow="0">
            <root>
                <mxCell id="0"/>
                <mxCell id="1" parent="0"/>
                <mxCell id="779ebcO4RIaoZJdc89qQ-2" value="VPC" style="points=[[0,0],[0.25,0],[0.5,0],[0.75,0],[1,0],[1,0.25],[1,0.5],[1,0.75],[1,1],[0.75,1],[0.5,1],[0.25,1],[0,1],[0,0.75],[0,0.5],[0,0.25]];outlineConnect=0;gradientColor=none;html=1;whiteSpace=wrap;fontSize=12;fontStyle=0;container=1;pointerEvents=0;collapsible=0;recursiveResize=0;shape=mxgraph.aws4.group;grIcon=mxgraph.aws4.group_vpc;strokeColor=#248814;fillColor=none;verticalAlign=top;align=left;spacingLeft=30;fontColor=#AAB7B8;dashed=0;strokeWidth=2;" parent="1" vertex="1">
                    <mxGeometry x="140" y="160" width="600" height="550" as="geometry"/>
                </mxCell>
                <mxCell id="779ebcO4RIaoZJdc89qQ-41" value="" style="rounded=1;arcSize=10;dashed=1;strokeColor=#F59D56;fillColor=none;gradientColor=none;dashPattern=8 4;strokeWidth=2;" parent="779ebcO4RIaoZJdc89qQ-2" vertex="1">
                    <mxGeometry x="320" y="50" width="260" height="440" as="geometry"/>
                </mxCell>
                <mxCell id="779ebcO4RIaoZJdc89qQ-40" value="" style="rounded=1;arcSize=10;dashed=1;strokeColor=#F59D56;fillColor=none;gradientColor=none;dashPattern=8 4;strokeWidth=2;" parent="779ebcO4RIaoZJdc89qQ-2" vertex="1">
                    <mxGeometry x="21" y="46" width="259" height="444" as="geometry"/>
                </mxCell>
                <mxCell id="779ebcO4RIaoZJdc89qQ-3" value="Public subnet" style="points=[[0,0],[0.25,0],[0.5,0],[0.75,0],[1,0],[1,0.25],[1,0.5],[1,0.75],[1,1],[0.75,1],[0.5,1],[0.25,1],[0,1],[0,0.75],[0,0.5],[0,0.25]];outlineConnect=0;gradientColor=none;html=1;whiteSpace=wrap;fontSize=12;fontStyle=0;container=1;pointerEvents=0;collapsible=0;recursiveResize=0;shape=mxgraph.aws4.group;grIcon=mxgraph.aws4.group_security_group;grStroke=0;strokeColor=#248814;fillColor=#E9F3E6;verticalAlign=top;align=left;spacingLeft=30;fontColor=#248814;dashed=0;" parent="779ebcO4RIaoZJdc89qQ-2" vertex="1">
                    <mxGeometry x="30" y="60" width="240" height="184.75" as="geometry"/>
                </mxCell>
                <mxCell id="779ebcO4RIaoZJdc89qQ-8" value="Amazon EC2" style="sketch=0;outlineConnect=0;fontColor=#232F3E;gradientColor=none;strokeColor=#ffffff;fillColor=#232F3E;dashed=0;verticalLabelPosition=middle;verticalAlign=bottom;align=center;html=1;whiteSpace=wrap;fontSize=10;fontStyle=1;spacing=3;shape=mxgraph.aws4.productIcon;prIcon=mxgraph.aws4.ec2;" parent="779ebcO4RIaoZJdc89qQ-3" vertex="1">
                    <mxGeometry x="90" y="40" width="60" height="90" as="geometry"/>
                </mxCell>
                <mxCell id="779ebcO4RIaoZJdc89qQ-12" value="" style="outlineConnect=0;dashed=0;verticalLabelPosition=bottom;verticalAlign=top;align=center;html=1;shape=mxgraph.aws3.vpc_nat_gateway;fillColor=#F58534;gradientColor=none;" parent="779ebcO4RIaoZJdc89qQ-3" vertex="1">
                    <mxGeometry x="170" y="10" width="39" height="42" as="geometry"/>
                </mxCell>
                <mxCell id="779ebcO4RIaoZJdc89qQ-13" value="NAT&lt;br&gt;GW" style="text;html=1;align=center;verticalAlign=middle;resizable=0;points=[];autosize=1;strokeColor=none;fillColor=none;" parent="779ebcO4RIaoZJdc89qQ-3" vertex="1">
                    <mxGeometry x="170" y="52" width="40" height="30" as="geometry"/>
                </mxCell>
                <mxCell id="779ebcO4RIaoZJdc89qQ-5" value="Private subnet" style="points=[[0,0],[0.25,0],[0.5,0],[0.75,0],[1,0],[1,0.25],[1,0.5],[1,0.75],[1,1],[0.75,1],[0.5,1],[0.25,1],[0,1],[0,0.75],[0,0.5],[0,0.25]];outlineConnect=0;gradientColor=none;html=1;whiteSpace=wrap;fontSize=12;fontStyle=0;container=1;pointerEvents=0;collapsible=0;recursiveResize=0;shape=mxgraph.aws4.group;grIcon=mxgraph.aws4.group_security_group;grStroke=0;strokeColor=#147EBA;fillColor=#E6F2F8;verticalAlign=top;align=left;spacingLeft=30;fontColor=#147EBA;dashed=0;" parent="779ebcO4RIaoZJdc89qQ-2" vertex="1">
                    <mxGeometry x="30" y="300" width="240" height="130" as="geometry"/>
                </mxCell>
                <mxCell id="779ebcO4RIaoZJdc89qQ-10" value="Amazon EC2" style="sketch=0;outlineConnect=0;fontColor=#232F3E;gradientColor=none;strokeColor=#ffffff;fillColor=#232F3E;dashed=0;verticalLabelPosition=middle;verticalAlign=bottom;align=center;html=1;whiteSpace=wrap;fontSize=10;fontStyle=1;spacing=3;shape=mxgraph.aws4.productIcon;prIcon=mxgraph.aws4.ec2;" parent="779ebcO4RIaoZJdc89qQ-5" vertex="1">
                    <mxGeometry x="90" y="30" width="60" height="90" as="geometry"/>
                </mxCell>
                <mxCell id="779ebcO4RIaoZJdc89qQ-15" value="VPC 10.0.0.0/20" style="text;html=1;align=center;verticalAlign=middle;resizable=0;points=[];autosize=1;strokeColor=none;fillColor=none;" parent="779ebcO4RIaoZJdc89qQ-2" vertex="1">
                    <mxGeometry x="230" y="520" width="100" height="20" as="geometry"/>
                </mxCell>
                <mxCell id="779ebcO4RIaoZJdc89qQ-20" value="Availability Zone 2" style="text;html=1;align=center;verticalAlign=middle;resizable=0;points=[];autosize=1;strokeColor=none;fillColor=none;" parent="779ebcO4RIaoZJdc89qQ-2" vertex="1">
                    <mxGeometry x="390" y="460" width="110" height="20" as="geometry"/>
                </mxCell>
                <mxCell id="779ebcO4RIaoZJdc89qQ-21" value="Availability Zone 1" style="text;html=1;align=center;verticalAlign=middle;resizable=0;points=[];autosize=1;strokeColor=none;fillColor=none;" parent="779ebcO4RIaoZJdc89qQ-2" vertex="1">
                    <mxGeometry x="90" y="460" width="110" height="20" as="geometry"/>
                </mxCell>
                <mxCell id="779ebcO4RIaoZJdc89qQ-22" value="Elastic IP" style="text;html=1;align=center;verticalAlign=middle;resizable=0;points=[];autosize=1;strokeColor=none;fillColor=none;" parent="779ebcO4RIaoZJdc89qQ-2" vertex="1">
                    <mxGeometry x="150" y="50" width="70" height="20" as="geometry"/>
                </mxCell>
                <mxCell id="779ebcO4RIaoZJdc89qQ-24" style="edgeStyle=orthogonalEdgeStyle;rounded=0;orthogonalLoop=1;jettySize=auto;html=1;exitX=0;exitY=0.5;exitDx=0;exitDy=0;exitPerimeter=0;entryX=0.471;entryY=1;entryDx=0;entryDy=0;entryPerimeter=0;strokeWidth=2;" parent="779ebcO4RIaoZJdc89qQ-2" source="779ebcO4RIaoZJdc89qQ-12" target="779ebcO4RIaoZJdc89qQ-22" edge="1">
                    <mxGeometry relative="1" as="geometry"/>
                </mxCell>
                <mxCell id="779ebcO4RIaoZJdc89qQ-34" style="edgeStyle=orthogonalEdgeStyle;rounded=0;orthogonalLoop=1;jettySize=auto;html=1;exitX=1;exitY=0.5;exitDx=0;exitDy=0;exitPerimeter=0;entryX=0.5;entryY=1;entryDx=0;entryDy=0;endArrow=diamond;endFill=1;startArrow=diamond;startFill=1;" parent="779ebcO4RIaoZJdc89qQ-2" source="779ebcO4RIaoZJdc89qQ-25" target="779ebcO4RIaoZJdc89qQ-4" edge="1">
                    <mxGeometry relative="1" as="geometry">
                        <Array as="points">
                            <mxPoint x="450" y="268"/>
                        </Array>
                    </mxGeometry>
                </mxCell>
                <mxCell id="779ebcO4RIaoZJdc89qQ-37" style="edgeStyle=orthogonalEdgeStyle;rounded=0;orthogonalLoop=1;jettySize=auto;html=1;exitX=0.145;exitY=0.855;exitDx=0;exitDy=0;exitPerimeter=0;startArrow=diamond;startFill=1;endArrow=diamond;endFill=1;" parent="779ebcO4RIaoZJdc89qQ-2" source="779ebcO4RIaoZJdc89qQ-25" target="779ebcO4RIaoZJdc89qQ-5" edge="1">
                    <mxGeometry relative="1" as="geometry">
                        <Array as="points">
                            <mxPoint x="276" y="290"/>
                            <mxPoint x="150" y="290"/>
                        </Array>
                    </mxGeometry>
                </mxCell>
                <mxCell id="779ebcO4RIaoZJdc89qQ-38" style="edgeStyle=orthogonalEdgeStyle;rounded=0;orthogonalLoop=1;jettySize=auto;html=1;exitX=0.855;exitY=0.855;exitDx=0;exitDy=0;exitPerimeter=0;entryX=0.5;entryY=0;entryDx=0;entryDy=0;startArrow=diamond;startFill=1;endArrow=diamond;endFill=1;" parent="779ebcO4RIaoZJdc89qQ-2" source="779ebcO4RIaoZJdc89qQ-25" target="779ebcO4RIaoZJdc89qQ-6" edge="1">
                    <mxGeometry relative="1" as="geometry">
                        <Array as="points">
                            <mxPoint x="450" y="291"/>
                        </Array>
                    </mxGeometry>
                </mxCell>
                <mxCell id="779ebcO4RIaoZJdc89qQ-39" style="edgeStyle=orthogonalEdgeStyle;rounded=0;orthogonalLoop=1;jettySize=auto;html=1;exitX=0;exitY=0.5;exitDx=0;exitDy=0;exitPerimeter=0;entryX=0.5;entryY=1;entryDx=0;entryDy=0;startArrow=diamond;startFill=1;endArrow=diamond;endFill=1;" parent="779ebcO4RIaoZJdc89qQ-2" source="779ebcO4RIaoZJdc89qQ-25" target="779ebcO4RIaoZJdc89qQ-3" edge="1">
                    <mxGeometry relative="1" as="geometry"/>
                </mxCell>
                <mxCell id="779ebcO4RIaoZJdc89qQ-25" value="" style="outlineConnect=0;dashed=0;verticalLabelPosition=bottom;verticalAlign=top;align=center;html=1;shape=mxgraph.aws3.router;fillColor=#F58536;gradientColor=none;strokeWidth=2;" parent="779ebcO4RIaoZJdc89qQ-2" vertex="1">
                    <mxGeometry x="270" y="236.38" width="64.5" height="63.62" as="geometry"/>
                </mxCell>
                <mxCell id="779ebcO4RIaoZJdc89qQ-4" value="Public subnet" style="points=[[0,0],[0.25,0],[0.5,0],[0.75,0],[1,0],[1,0.25],[1,0.5],[1,0.75],[1,1],[0.75,1],[0.5,1],[0.25,1],[0,1],[0,0.75],[0,0.5],[0,0.25]];outlineConnect=0;gradientColor=none;html=1;whiteSpace=wrap;fontSize=12;fontStyle=0;container=1;pointerEvents=0;collapsible=0;recursiveResize=0;shape=mxgraph.aws4.group;grIcon=mxgraph.aws4.group_security_group;grStroke=0;strokeColor=#248814;fillColor=#E9F3E6;verticalAlign=top;align=left;spacingLeft=30;fontColor=#248814;dashed=0;" parent="779ebcO4RIaoZJdc89qQ-2" vertex="1">
                    <mxGeometry x="330" y="60" width="240" height="190" as="geometry"/>
                </mxCell>
                <mxCell id="779ebcO4RIaoZJdc89qQ-11" value="Amazon EC2" style="sketch=0;outlineConnect=0;fontColor=#232F3E;gradientColor=none;strokeColor=#ffffff;fillColor=#232F3E;dashed=0;verticalLabelPosition=middle;verticalAlign=bottom;align=center;html=1;whiteSpace=wrap;fontSize=10;fontStyle=1;spacing=3;shape=mxgraph.aws4.productIcon;prIcon=mxgraph.aws4.ec2;" parent="779ebcO4RIaoZJdc89qQ-4" vertex="1">
                    <mxGeometry x="90" y="40" width="60" height="90" as="geometry"/>
                </mxCell>
                <mxCell id="779ebcO4RIaoZJdc89qQ-6" value="Private subnet" style="points=[[0,0],[0.25,0],[0.5,0],[0.75,0],[1,0],[1,0.25],[1,0.5],[1,0.75],[1,1],[0.75,1],[0.5,1],[0.25,1],[0,1],[0,0.75],[0,0.5],[0,0.25]];outlineConnect=0;gradientColor=none;html=1;whiteSpace=wrap;fontSize=12;fontStyle=0;container=1;pointerEvents=0;collapsible=0;recursiveResize=0;shape=mxgraph.aws4.group;grIcon=mxgraph.aws4.group_security_group;grStroke=0;strokeColor=#147EBA;fillColor=#E6F2F8;verticalAlign=top;align=left;spacingLeft=30;fontColor=#147EBA;dashed=0;" parent="779ebcO4RIaoZJdc89qQ-2" vertex="1">
                    <mxGeometry x="330" y="300" width="240" height="130" as="geometry"/>
                </mxCell>
                <mxCell id="779ebcO4RIaoZJdc89qQ-9" value="Amazon EC2" style="sketch=0;outlineConnect=0;fontColor=#232F3E;gradientColor=none;strokeColor=#ffffff;fillColor=#232F3E;dashed=0;verticalLabelPosition=middle;verticalAlign=bottom;align=center;html=1;whiteSpace=wrap;fontSize=10;fontStyle=1;spacing=3;shape=mxgraph.aws4.productIcon;prIcon=mxgraph.aws4.ec2;" parent="779ebcO4RIaoZJdc89qQ-6" vertex="1">
                    <mxGeometry x="90" y="30" width="60" height="90" as="geometry"/>
                </mxCell>
                <mxCell id="779ebcO4RIaoZJdc89qQ-1" value="Region" style="points=[[0,0],[0.25,0],[0.5,0],[0.75,0],[1,0],[1,0.25],[1,0.5],[1,0.75],[1,1],[0.75,1],[0.5,1],[0.25,1],[0,1],[0,0.75],[0,0.5],[0,0.25]];outlineConnect=0;gradientColor=none;html=1;whiteSpace=wrap;fontSize=12;fontStyle=0;container=1;pointerEvents=0;collapsible=0;recursiveResize=0;shape=mxgraph.aws4.group;grIcon=mxgraph.aws4.group_region;strokeColor=#147EBA;fillColor=none;verticalAlign=top;align=left;spacingLeft=30;fontColor=#147EBA;dashed=1;strokeWidth=2;" parent="1" vertex="1">
                    <mxGeometry x="110" y="110" width="660" height="1270" as="geometry"/>
                </mxCell>
                <mxCell id="779ebcO4RIaoZJdc89qQ-14" value="AWS Region" style="text;html=1;align=center;verticalAlign=middle;resizable=0;points=[];autosize=1;strokeColor=none;fillColor=none;" parent="779ebcO4RIaoZJdc89qQ-1" vertex="1">
                    <mxGeometry x="290" y="610" width="80" height="20" as="geometry"/>
                </mxCell>
                <mxCell id="779ebcO4RIaoZJdc89qQ-42" value="" style="outlineConnect=0;dashed=0;verticalLabelPosition=bottom;verticalAlign=top;align=center;html=1;shape=mxgraph.aws3.internet_gateway;fillColor=#F58534;gradientColor=none;strokeWidth=2;" parent="779ebcO4RIaoZJdc89qQ-1" vertex="1">
                    <mxGeometry x="301" y="10" width="69" height="72" as="geometry"/>
                </mxCell>
                <mxCell id="779ebcO4RIaoZJdc89qQ-43" value="Internet&lt;br&gt;Gateway" style="text;html=1;align=center;verticalAlign=middle;resizable=0;points=[];autosize=1;strokeColor=none;fillColor=none;" parent="779ebcO4RIaoZJdc89qQ-1" vertex="1">
                    <mxGeometry x="305.5" y="60" width="60" height="30" as="geometry"/>
                </mxCell>
                <mxCell id="779ebcO4RIaoZJdc89qQ-44" value="" style="endArrow=classic;html=1;rounded=0;strokeWidth=2;" parent="779ebcO4RIaoZJdc89qQ-1" edge="1">
                    <mxGeometry width="50" height="50" relative="1" as="geometry">
                        <mxPoint x="210" y="90" as="sourcePoint"/>
                        <mxPoint x="290" y="-70" as="targetPoint"/>
                        <Array as="points">
                            <mxPoint x="210" y="-70"/>
                        </Array>
                    </mxGeometry>
                </mxCell>
                <mxCell id="779ebcO4RIaoZJdc89qQ-48" value="VPC" style="points=[[0,0],[0.25,0],[0.5,0],[0.75,0],[1,0],[1,0.25],[1,0.5],[1,0.75],[1,1],[0.75,1],[0.5,1],[0.25,1],[0,1],[0,0.75],[0,0.5],[0,0.25]];outlineConnect=0;gradientColor=none;html=1;whiteSpace=wrap;fontSize=12;fontStyle=0;container=1;pointerEvents=0;collapsible=0;recursiveResize=0;shape=mxgraph.aws4.group;grIcon=mxgraph.aws4.group_vpc;strokeColor=#248814;fillColor=none;verticalAlign=top;align=left;spacingLeft=30;fontColor=#AAB7B8;dashed=0;strokeWidth=2;" parent="779ebcO4RIaoZJdc89qQ-1" vertex="1">
                    <mxGeometry x="30" y="700" width="600" height="550" as="geometry"/>
                </mxCell>
                <mxCell id="779ebcO4RIaoZJdc89qQ-49" value="" style="rounded=1;arcSize=10;dashed=1;strokeColor=#F59D56;fillColor=none;gradientColor=none;dashPattern=8 4;strokeWidth=2;" parent="779ebcO4RIaoZJdc89qQ-48" vertex="1">
                    <mxGeometry x="320" y="50" width="260" height="440" as="geometry"/>
                </mxCell>
                <mxCell id="779ebcO4RIaoZJdc89qQ-50" value="" style="rounded=1;arcSize=10;dashed=1;strokeColor=#F59D56;fillColor=none;gradientColor=none;dashPattern=8 4;strokeWidth=2;" parent="779ebcO4RIaoZJdc89qQ-48" vertex="1">
                    <mxGeometry x="21" y="46" width="259" height="444" as="geometry"/>
                </mxCell>
                <mxCell id="779ebcO4RIaoZJdc89qQ-51" value="Public subnet" style="points=[[0,0],[0.25,0],[0.5,0],[0.75,0],[1,0],[1,0.25],[1,0.5],[1,0.75],[1,1],[0.75,1],[0.5,1],[0.25,1],[0,1],[0,0.75],[0,0.5],[0,0.25]];outlineConnect=0;gradientColor=none;html=1;whiteSpace=wrap;fontSize=12;fontStyle=0;container=1;pointerEvents=0;collapsible=0;recursiveResize=0;shape=mxgraph.aws4.group;grIcon=mxgraph.aws4.group_security_group;grStroke=0;strokeColor=#248814;fillColor=#E9F3E6;verticalAlign=top;align=left;spacingLeft=30;fontColor=#248814;dashed=0;" parent="779ebcO4RIaoZJdc89qQ-48" vertex="1">
                    <mxGeometry x="30" y="60" width="240" height="184.75" as="geometry"/>
                </mxCell>
                <mxCell id="779ebcO4RIaoZJdc89qQ-52" value="Amazon EC2" style="sketch=0;outlineConnect=0;fontColor=#232F3E;gradientColor=none;strokeColor=#ffffff;fillColor=#232F3E;dashed=0;verticalLabelPosition=middle;verticalAlign=bottom;align=center;html=1;whiteSpace=wrap;fontSize=10;fontStyle=1;spacing=3;shape=mxgraph.aws4.productIcon;prIcon=mxgraph.aws4.ec2;" parent="779ebcO4RIaoZJdc89qQ-51" vertex="1">
                    <mxGeometry x="90" y="40" width="60" height="90" as="geometry"/>
                </mxCell>
                <mxCell id="779ebcO4RIaoZJdc89qQ-55" value="Private subnet" style="points=[[0,0],[0.25,0],[0.5,0],[0.75,0],[1,0],[1,0.25],[1,0.5],[1,0.75],[1,1],[0.75,1],[0.5,1],[0.25,1],[0,1],[0,0.75],[0,0.5],[0,0.25]];outlineConnect=0;gradientColor=none;html=1;whiteSpace=wrap;fontSize=12;fontStyle=0;container=1;pointerEvents=0;collapsible=0;recursiveResize=0;shape=mxgraph.aws4.group;grIcon=mxgraph.aws4.group_security_group;grStroke=0;strokeColor=#147EBA;fillColor=#E6F2F8;verticalAlign=top;align=left;spacingLeft=30;fontColor=#147EBA;dashed=0;" parent="779ebcO4RIaoZJdc89qQ-48" vertex="1">
                    <mxGeometry x="30" y="300" width="240" height="130" as="geometry"/>
                </mxCell>
                <mxCell id="779ebcO4RIaoZJdc89qQ-56" value="Amazon EC2" style="sketch=0;outlineConnect=0;fontColor=#232F3E;gradientColor=none;strokeColor=#ffffff;fillColor=#232F3E;dashed=0;verticalLabelPosition=middle;verticalAlign=bottom;align=center;html=1;whiteSpace=wrap;fontSize=10;fontStyle=1;spacing=3;shape=mxgraph.aws4.productIcon;prIcon=mxgraph.aws4.ec2;" parent="779ebcO4RIaoZJdc89qQ-55" vertex="1">
                    <mxGeometry x="90" y="30" width="60" height="90" as="geometry"/>
                </mxCell>
                <mxCell id="779ebcO4RIaoZJdc89qQ-57" value="VPC 10.0.0.0/20" style="text;html=1;align=center;verticalAlign=middle;resizable=0;points=[];autosize=1;strokeColor=none;fillColor=none;" parent="779ebcO4RIaoZJdc89qQ-48" vertex="1">
                    <mxGeometry x="230" y="520" width="100" height="20" as="geometry"/>
                </mxCell>
                <mxCell id="779ebcO4RIaoZJdc89qQ-58" value="Availability Zone 2" style="text;html=1;align=center;verticalAlign=middle;resizable=0;points=[];autosize=1;strokeColor=none;fillColor=none;" parent="779ebcO4RIaoZJdc89qQ-48" vertex="1">
                    <mxGeometry x="390" y="460" width="110" height="20" as="geometry"/>
                </mxCell>
                <mxCell id="779ebcO4RIaoZJdc89qQ-59" value="Availability Zone 1" style="text;html=1;align=center;verticalAlign=middle;resizable=0;points=[];autosize=1;strokeColor=none;fillColor=none;" parent="779ebcO4RIaoZJdc89qQ-48" vertex="1">
                    <mxGeometry x="90" y="460" width="110" height="20" as="geometry"/>
                </mxCell>
                <mxCell id="779ebcO4RIaoZJdc89qQ-62" style="edgeStyle=orthogonalEdgeStyle;rounded=0;orthogonalLoop=1;jettySize=auto;html=1;exitX=1;exitY=0.5;exitDx=0;exitDy=0;exitPerimeter=0;entryX=0.5;entryY=1;entryDx=0;entryDy=0;endArrow=diamond;endFill=1;startArrow=diamond;startFill=1;" parent="779ebcO4RIaoZJdc89qQ-48" source="779ebcO4RIaoZJdc89qQ-66" target="779ebcO4RIaoZJdc89qQ-67" edge="1">
                    <mxGeometry relative="1" as="geometry">
                        <Array as="points">
                            <mxPoint x="450" y="268"/>
                        </Array>
                    </mxGeometry>
                </mxCell>
                <mxCell id="779ebcO4RIaoZJdc89qQ-63" style="edgeStyle=orthogonalEdgeStyle;rounded=0;orthogonalLoop=1;jettySize=auto;html=1;exitX=0.145;exitY=0.855;exitDx=0;exitDy=0;exitPerimeter=0;startArrow=diamond;startFill=1;endArrow=diamond;endFill=1;" parent="779ebcO4RIaoZJdc89qQ-48" source="779ebcO4RIaoZJdc89qQ-66" target="779ebcO4RIaoZJdc89qQ-55" edge="1">
                    <mxGeometry relative="1" as="geometry">
                        <Array as="points">
                            <mxPoint x="276" y="290"/>
                            <mxPoint x="150" y="290"/>
                        </Array>
                    </mxGeometry>
                </mxCell>
                <mxCell id="779ebcO4RIaoZJdc89qQ-64" style="edgeStyle=orthogonalEdgeStyle;rounded=0;orthogonalLoop=1;jettySize=auto;html=1;exitX=0.855;exitY=0.855;exitDx=0;exitDy=0;exitPerimeter=0;entryX=0.5;entryY=0;entryDx=0;entryDy=0;startArrow=diamond;startFill=1;endArrow=diamond;endFill=1;" parent="779ebcO4RIaoZJdc89qQ-48" source="779ebcO4RIaoZJdc89qQ-66" target="779ebcO4RIaoZJdc89qQ-69" edge="1">
                    <mxGeometry relative="1" as="geometry">
                        <Array as="points">
                            <mxPoint x="450" y="291"/>
                        </Array>
                    </mxGeometry>
                </mxCell>
                <mxCell id="779ebcO4RIaoZJdc89qQ-65" style="edgeStyle=orthogonalEdgeStyle;rounded=0;orthogonalLoop=1;jettySize=auto;html=1;exitX=0;exitY=0.5;exitDx=0;exitDy=0;exitPerimeter=0;entryX=0.5;entryY=1;entryDx=0;entryDy=0;startArrow=diamond;startFill=1;endArrow=diamond;endFill=1;" parent="779ebcO4RIaoZJdc89qQ-48" source="779ebcO4RIaoZJdc89qQ-66" target="779ebcO4RIaoZJdc89qQ-51" edge="1">
                    <mxGeometry relative="1" as="geometry"/>
                </mxCell>
                <mxCell id="779ebcO4RIaoZJdc89qQ-66" value="" style="outlineConnect=0;dashed=0;verticalLabelPosition=bottom;verticalAlign=top;align=center;html=1;shape=mxgraph.aws3.router;fillColor=#F58536;gradientColor=none;strokeWidth=2;" parent="779ebcO4RIaoZJdc89qQ-48" vertex="1">
                    <mxGeometry x="270" y="236.38" width="64.5" height="63.62" as="geometry"/>
                </mxCell>
                <mxCell id="779ebcO4RIaoZJdc89qQ-67" value="Public subnet" style="points=[[0,0],[0.25,0],[0.5,0],[0.75,0],[1,0],[1,0.25],[1,0.5],[1,0.75],[1,1],[0.75,1],[0.5,1],[0.25,1],[0,1],[0,0.75],[0,0.5],[0,0.25]];outlineConnect=0;gradientColor=none;html=1;whiteSpace=wrap;fontSize=12;fontStyle=0;container=1;pointerEvents=0;collapsible=0;recursiveResize=0;shape=mxgraph.aws4.group;grIcon=mxgraph.aws4.group_security_group;grStroke=0;strokeColor=#248814;fillColor=#E9F3E6;verticalAlign=top;align=left;spacingLeft=30;fontColor=#248814;dashed=0;" parent="779ebcO4RIaoZJdc89qQ-48" vertex="1">
                    <mxGeometry x="330" y="60" width="240" height="190" as="geometry"/>
                </mxCell>
                <mxCell id="779ebcO4RIaoZJdc89qQ-68" value="Amazon EC2" style="sketch=0;outlineConnect=0;fontColor=#232F3E;gradientColor=none;strokeColor=#ffffff;fillColor=#232F3E;dashed=0;verticalLabelPosition=middle;verticalAlign=bottom;align=center;html=1;whiteSpace=wrap;fontSize=10;fontStyle=1;spacing=3;shape=mxgraph.aws4.productIcon;prIcon=mxgraph.aws4.ec2;" parent="779ebcO4RIaoZJdc89qQ-67" vertex="1">
                    <mxGeometry x="90" y="40" width="60" height="90" as="geometry"/>
                </mxCell>
                <mxCell id="779ebcO4RIaoZJdc89qQ-69" value="Private subnet" style="points=[[0,0],[0.25,0],[0.5,0],[0.75,0],[1,0],[1,0.25],[1,0.5],[1,0.75],[1,1],[0.75,1],[0.5,1],[0.25,1],[0,1],[0,0.75],[0,0.5],[0,0.25]];outlineConnect=0;gradientColor=none;html=1;whiteSpace=wrap;fontSize=12;fontStyle=0;container=1;pointerEvents=0;collapsible=0;recursiveResize=0;shape=mxgraph.aws4.group;grIcon=mxgraph.aws4.group_security_group;grStroke=0;strokeColor=#147EBA;fillColor=#E6F2F8;verticalAlign=top;align=left;spacingLeft=30;fontColor=#147EBA;dashed=0;" parent="779ebcO4RIaoZJdc89qQ-48" vertex="1">
                    <mxGeometry x="330" y="300" width="240" height="130" as="geometry"/>
                </mxCell>
                <mxCell id="779ebcO4RIaoZJdc89qQ-70" value="Amazon EC2" style="sketch=0;outlineConnect=0;fontColor=#232F3E;gradientColor=none;strokeColor=#ffffff;fillColor=#232F3E;dashed=0;verticalLabelPosition=middle;verticalAlign=bottom;align=center;html=1;whiteSpace=wrap;fontSize=10;fontStyle=1;spacing=3;shape=mxgraph.aws4.productIcon;prIcon=mxgraph.aws4.ec2;" parent="779ebcO4RIaoZJdc89qQ-69" vertex="1">
                    <mxGeometry x="90" y="30" width="60" height="90" as="geometry"/>
                </mxCell>
                <mxCell id="779ebcO4RIaoZJdc89qQ-73" style="edgeStyle=orthogonalEdgeStyle;rounded=0;orthogonalLoop=1;jettySize=auto;html=1;exitX=0.855;exitY=0.855;exitDx=0;exitDy=0;exitPerimeter=0;entryX=0.25;entryY=0;entryDx=0;entryDy=0;startArrow=diamond;startFill=1;endArrow=diamond;endFill=1;strokeWidth=2;" parent="779ebcO4RIaoZJdc89qQ-1" source="779ebcO4RIaoZJdc89qQ-71" target="779ebcO4RIaoZJdc89qQ-48" edge="1">
                    <mxGeometry relative="1" as="geometry">
                        <Array as="points">
                            <mxPoint x="89" y="680"/>
                            <mxPoint x="180" y="680"/>
                        </Array>
                    </mxGeometry>
                </mxCell>
                <mxCell id="779ebcO4RIaoZJdc89qQ-71" value="" style="outlineConnect=0;dashed=0;verticalLabelPosition=bottom;verticalAlign=top;align=center;html=1;shape=mxgraph.aws3.vpc_peering;fillColor=#F58534;gradientColor=none;strokeWidth=2;" parent="779ebcO4RIaoZJdc89qQ-1" vertex="1">
                    <mxGeometry x="30" y="610" width="69" height="72" as="geometry"/>
                </mxCell>
                <mxCell id="779ebcO4RIaoZJdc89qQ-74" value="VPC Peering" style="text;html=1;align=center;verticalAlign=middle;resizable=0;points=[];autosize=1;strokeColor=none;fillColor=none;" parent="779ebcO4RIaoZJdc89qQ-1" vertex="1">
                    <mxGeometry x="99" y="640" width="80" height="20" as="geometry"/>
                </mxCell>
                <mxCell id="779ebcO4RIaoZJdc89qQ-45" value="" style="sketch=0;outlineConnect=0;fontColor=#232F3E;gradientColor=none;fillColor=#232F3D;strokeColor=none;dashed=0;verticalLabelPosition=bottom;verticalAlign=top;align=center;html=1;fontSize=12;fontStyle=0;aspect=fixed;pointerEvents=1;shape=mxgraph.aws4.internet_alt2;" parent="1" vertex="1">
                    <mxGeometry x="401" width="78" height="78" as="geometry"/>
                </mxCell>
                <mxCell id="779ebcO4RIaoZJdc89qQ-46" value="Internet" style="text;html=1;align=center;verticalAlign=middle;resizable=0;points=[];autosize=1;strokeColor=none;fillColor=none;" parent="1" vertex="1">
                    <mxGeometry x="470" y="20" width="60" height="20" as="geometry"/>
                </mxCell>
                <mxCell id="779ebcO4RIaoZJdc89qQ-47" value="" style="endArrow=classic;html=1;rounded=0;strokeWidth=2;exitX=1.05;exitY=1;exitDx=0;exitDy=0;exitPerimeter=0;entryX=0.554;entryY=-0.005;entryDx=0;entryDy=0;entryPerimeter=0;" parent="1" source="779ebcO4RIaoZJdc89qQ-46" target="779ebcO4RIaoZJdc89qQ-41" edge="1">
                    <mxGeometry width="50" height="50" relative="1" as="geometry">
                        <mxPoint x="550" y="80" as="sourcePoint"/>
                        <mxPoint x="600" y="30" as="targetPoint"/>
                        <Array as="points">
                            <mxPoint x="604" y="40"/>
                        </Array>
                    </mxGeometry>
                </mxCell>
                <mxCell id="779ebcO4RIaoZJdc89qQ-72" style="edgeStyle=orthogonalEdgeStyle;rounded=0;orthogonalLoop=1;jettySize=auto;html=1;exitX=0.855;exitY=0.145;exitDx=0;exitDy=0;exitPerimeter=0;entryX=0.25;entryY=1;entryDx=0;entryDy=0;startArrow=diamond;startFill=1;endArrow=diamond;endFill=1;strokeWidth=2;" parent="1" source="779ebcO4RIaoZJdc89qQ-71" target="779ebcO4RIaoZJdc89qQ-2" edge="1">
                    <mxGeometry relative="1" as="geometry">
                        <Array as="points">
                            <mxPoint x="290" y="730"/>
                        </Array>
                    </mxGeometry>
                </mxCell>
            </root>
        </mxGraphModel>
    </diagram>
</mxfile>